<svg xmlns="http://www.w3.org/2000/svg" width="16.709" height="23.399" viewBox="0 0 16.709 23.399">
  <g id="tap" transform="translate(-73.187)">
    <g id="Group_4069" data-name="Group 4069" transform="translate(73.187 0)">
      <g id="Group_4068" data-name="Group 4068">
        <path id="Path_13450" data-name="Path 13450" d="M130.137,9.179V5.013a2.785,2.785,0,0,1,5.57,0V9.179a5.013,5.013,0,1,0-5.57,0Z" transform="translate(-125.408 0)" fill="rgba(255,255,255,0.75)"/>
        <path id="Path_13451" data-name="Path 13451" d="M88.871,84.12,83.814,81.6a1.576,1.576,0,0,0-.607-.123h-.835V74.8a1.671,1.671,0,1,0-3.342,0V86.754l-3.815-.8a1.345,1.345,0,0,0-.262-.028,1.27,1.27,0,0,0-.886.368l-.88.891,5.5,5.5a1.687,1.687,0,0,0,1.181.49H87.44a1.613,1.613,0,0,0,1.6-1.426l.841-5.871a1.574,1.574,0,0,0,.017-.228A1.685,1.685,0,0,0,88.871,84.12Z" transform="translate(-73.187 -69.783)" fill="rgba(255,255,255,0.75)"/>
      </g>
    </g>
  </g>
</svg>
