<svg xmlns="http://www.w3.org/2000/svg" width="27.664" height="22.471" viewBox="0 0 27.664 22.471">
  <path id="draw" d="M1.344,17.384A2.385,2.385,0,0,0,2,17.6l-.357.51a.813.813,0,0,0-.138.346l-.53,3.585a.811.811,0,0,0,1.188.832l3-1.626a2.429,2.429,0,0,0,3.75.637,2.431,2.431,0,0,0,4.053-1.811v-.31a11.169,11.169,0,0,0,4.863,1.121A11.289,11.289,0,0,0,22.8,19.735v1.959a.81.81,0,0,0,1.173.725L27.219,20.8a.811.811,0,0,0,.448-.725V10.346a.811.811,0,0,0-.811-.811H21.262l-5.718-2.8,2.172-3.1a.811.811,0,0,0-.2-1.129L14.862.646a.811.811,0,0,0-1.129.2l-2.874,4.1a2.419,2.419,0,0,0-1.968-.128L5.806,6.162a2.423,2.423,0,0,0-1.083.926L.3,14.049a2.427,2.427,0,0,0,1.047,3.335Zm1.473,3.29.266-1.793.725-1.035a3.265,3.265,0,0,0,1.228,1.072l-.625.893Zm4.478.208a.812.812,0,0,1-.811-.811v-.4l.29-.414H8.1v.811a.811.811,0,0,1-.81.815Zm3.242,0a.811.811,0,0,1-.811-.811V19.26h1.621v.811a.812.812,0,0,1-.81.812ZM26.046,19.57l-1.621.811V11.156h1.621Zm-5.328-8.5a.812.812,0,0,0,.356.083H22.8v6.783a10.65,10.65,0,0,1-4.971,1.322,10.947,10.947,0,0,1-5.312-1.536.82.82,0,0,0-.362-.085H6.484a1.623,1.623,0,0,1-1.609-1.429.81.81,0,0,0,0-.354A1.623,1.623,0,0,1,6.484,14.4h5a6.3,6.3,0,0,0,4.487-1.859.811.811,0,1,0-1.146-1.146,4.694,4.694,0,0,1-3.341,1.384h-.172l3.288-4.7ZM12.736,5.1l1.328.93L9.336,12.778H7.357ZM14.6,2.439l1.328.93L14.994,4.7l-1.328-.93ZM1.691,14.878l4.4-6.92a.808.808,0,0,1,.361-.309L9.5,6.326a.814.814,0,0,1,.4-.013L5.188,13.049a3.252,3.252,0,0,0-1.907,2.469.932.932,0,0,1-1.212.416.81.81,0,0,1-.377-1.056Zm0,0" transform="translate(-0.003 -0.5)" fill="#fff"/>
</svg>
