<?xml version="1.0" encoding="utf-8"?>
<!-- Generator: Adobe Illustrator 23.0.1, SVG Export Plug-In . SVG Version: 6.00 Build 0)  -->
<svg version="1.1" id="Слой_1" xmlns="http://www.w3.org/2000/svg" xmlns:xlink="http://www.w3.org/1999/xlink" x="0px" y="0px"
	 viewBox="0 0 466 466" style="enable-background:new 0 0 466 466;" xml:space="preserve">
<style type="text/css">
	.st0{fill:#F7CAA5;}
	.st1{fill:#5A897E;}
</style>
<path class="st0" d="M377,203.6c0-19,14.4-34.4,32.1-34.4h0.7c17.7,0,32,15.3,32.1,34.3c0.1,62,0.1,68.1,0,160.7
	c-0.1,52-39.4,94.1-87.9,94.1H249.7c-31.9,0-61.3-18.5-76.8-48.3l-93-178.6l9.7-8c20.1-18.5,50.3-16.2,67.8,5.1l26,31.7l0.2-217.8
	c0-19,14.4-34.4,32.1-34.4l0,0c17.7,0,32.1,15.4,32.1,34.4v131.5c0.6-18.4,14.7-33.2,32.1-33.2h0.7c17.7,0,32.1,15.4,32.1,34.4v11.1
	c0-19,14.4-34.4,32.1-34.4h0.1c17.7,0,32.1,15.4,32.1,34.4L377,203.6L377,203.6z"/>
<g>
	<path d="M409.8,161.2H409c-9.8,0-19.3,3.8-26.5,10.6c-5.6-16.3-20.4-28-37.8-28c-10.8,0.1-21,4.7-28.3,12.7
		c-6.6-13.9-20.2-23.2-35.9-23.2h-0.7c-9.1,0-17.8,2.6-23.8,7.9V42.4C256.1,19,238,0,215.8,0c-22.1,0-40.1,19-40.1,42.3l-0.2,195.5
		l-11.9-14.4c-9.5-11.9-23.6-19.3-38.8-20.4c-14.9-1-29.5,4.2-40.5,14.3l-9.6,7.9c-2.9,2.4-3.7,6.5-2,9.8l92.9,178.4
		c16.9,32.5,49,52.5,83.9,52.5h104.2c52.8,0,95.9-45.7,95.9-102c0-26.7,0-46.1,0.1-61.9c0.1-38.6,0.1-54.6,0-98.8
		C449.8,180.1,431.8,161.2,409.8,161.2z M433.9,302.2c0,15.7,0,35.1-0.1,61.8c-0.1,47.5-35.9,86-79.9,86H249.7
		c-28.9,0-55.6-16.7-69.7-43.9L90,233.4l4.7-3.9c0.1-0.1,0.2-0.2,0.3-0.3c7.7-7.3,18.1-11,28.7-10.3c10.8,0.8,20.8,6.1,27.5,14.6
		l26,31.7c2.1,2.6,5.7,3.6,8.9,2.5s5.3-4.1,5.3-7.5l0.2-217.8c0-14.5,10.9-26.4,24.2-26.4S240,27.8,240,42.4v131.5
		c0,0.4,0,0.8,0,1.2c0,0.1,0,0.3,0,0.4v56.3c0,4.4,3.6,8,8,8s8-3.6,8-8v-57.7c0-14.2,10.8-24.9,23.8-24.9h0.7
		c13.3,0,24.4,11.4,24.4,25.9v51.4c0,4.4,3.6,8,8,8s8-3.6,8-8v-40.3c0-14.5,10.7-26.4,24-26.4s23.9,11.8,23.9,26.4v38
		c0,4.4,3.6,8,8,8s8-3.6,8-8v-20.6c0-14.5,10.8-26.4,24-26.4h0.7c13.3,0,24.1,11.8,24.1,26.3C434,247.6,433.9,263.6,433.9,302.2z"/>
	<path class="st1" d="M284.1,79.2h103.6l-18.6,18.6c-3.1,3.1-3.1,8.2,0,11.3c3.1,3.1,8.2,3.1,11.3,0L412.5,77
		c3.1-3.1,3.1-8.2,0-11.3l-32.1-32.1c-3.1-3.1-8.2-3.1-11.3,0c-3.1,3.1-3.1,8.2,0,11.3l18.3,18.3H284.1c-4.4,0-8,3.6-8,8
		S279.6,79.2,284.1,79.2z"/>
	<path class="st1" d="M43.4,79.2h102.7c4.4,0,8-3.6,8-8s-3.6-8-8-8H43.7L62,44.9c3.1-3.1,3.1-8.2,0-11.3s-8.2-3.1-11.3,0L18.6,65.7
		c-3.1,3.1-3.1,8.2,0,11.3l32.1,32.1c3.1,3.1,8.2,3.1,11.3,0c3.1-3.1,3.1-8.2,0-11.3L43.4,79.2z"/>
</g>
</svg>
