<svg xmlns="http://www.w3.org/2000/svg" width="23.999" height="23.962" viewBox="0 0 23.999 23.962">
  <path id="star" d="M5.574,15.362,4.307,23.129a.75.75,0,0,0,1.1.777L12,20.264l6.59,3.643a.76.76,0,0,0,.363.093.75.75,0,0,0,.74-.871l-1.267-7.767,5.36-5.494A.749.749,0,0,0,23.363,8.6L15.985,7.476,12.678.432a.781.781,0,0,0-1.357,0L8.015,7.476.637,8.6A.75.75,0,0,0,.213,9.868ZM8.637,8.9A.749.749,0,0,0,9.2,8.476L12,2.515l2.8,5.96a.747.747,0,0,0,.565.422l6.331.967-4.6,4.72a.75.75,0,0,0-.2.645l1.08,6.617-5.6-3.1A.755.755,0,0,0,12,18.656a.744.744,0,0,0-.363.094l-5.6,3.1,1.08-6.617a.751.751,0,0,0-.2-.645L2.306,9.864Z" transform="translate(0 -0.038)"/>
</svg>
